<?xml version="1.0" encoding="utf-8"?>
<!-- Svg Vector Icons : http://www.onlinewebfonts.com/icon -->
<!DOCTYPE svg PUBLIC "-//W3C//DTD SVG 1.1//EN" "http://www.w3.org/Graphics/SVG/1.1/DTD/svg11.dtd">
<svg version="1.1" xmlns="http://www.w3.org/2000/svg" xmlns:xlink="http://www.w3.org/1999/xlink" x="0px" y="0px" viewBox="0 0 1000 1000" enable-background="new 0 0 1000 1000" xml:space="preserve">
<metadata> Svg Vector Icons : http://www.onlinewebfonts.com/icon </metadata>
<g><path fill="currentColor" d="M500,928.8c-236.8,0-428.8-192-428.8-428.8c0-236.7,192-428.8,428.8-428.8c236.8,0,428.8,192,428.8,428.8C928.8,736.7,736.8,928.8,500,928.8L500,928.8z M500,10C229.4,10,10,229.3,10,500c0,270.7,219.4,490,490,490c270.6,0,490-219.3,490-490C990,229.3,770.6,10,500,10L500,10z M675.1,324.8c-12.1-11.9-31.6-11.9-43.6,0L499.8,456.5L370.1,326.7c-12-11.9-31.4-11.9-43.3,0c-12,11.9-12,31.5,0,43.5l129.7,129.5L325.9,630.5c-12,11.9-12,31.5,0,43.8c12.1,11.9,31.6,11.9,43.7,0l130.6-130.8l129.7,129.8c12,11.9,31.4,11.9,43.3,0c12-11.9,12-31.5,0-43.5L543.5,500.3l131.6-131.7C687.1,356.4,687.1,337.1,675.1,324.8L675.1,324.8z"/></g>
</svg>